<?xml version="1.0" standalone="no"?>
<!DOCTYPE svg PUBLIC "-//W3C//DTD SVG 20010904//EN"
 "http://www.w3.org/TR/2001/REC-SVG-20010904/DTD/svg10.dtd">
<svg version="1.0" xmlns="http://www.w3.org/2000/svg"
 width="775.000000pt" height="775.000000pt" viewBox="0 0 775.000000 775.000000"
 preserveAspectRatio="xMidYMid meet">
<metadata>
Created by potrace 1.14, written by Peter Selinger 2001-2017
</metadata>
<g transform="translate(0.000000,775.000000) scale(0.100000,-0.100000)"
fill="#000000" stroke="none">
<path d="M3640 7730 c-377 -52 -744 -217 -1070 -478 -407 -328 -772 -851
-1004 -1441 -223 -566 -338 -1154 -353 -1811 -27 -1169 306 -2277 917 -3051
118 -149 372 -398 515 -505 366 -273 742 -413 1160 -431 791 -33 1558 454
2080 1321 346 576 564 1283 637 2071 17 182 17 777 0 950 -33 331 -71 558
-143 845 -242 973 -741 1757 -1394 2195 -127 85 -368 204 -507 249 -203 67
-327 87 -563 91 -115 2 -239 0 -275 -5z m540 -279 c984 -207 1767 -1247 2020
-2681 45 -259 61 -444 67 -790 8 -468 -16 -753 -97 -1150 -229 -1130 -823
-2028 -1575 -2386 -543 -258 -1106 -222 -1640 106 -560 343 -1039 1051 -1284
1895 -358 1237 -223 2673 349 3715 84 155 229 372 333 500 103 127 322 343
435 429 273 207 593 343 894 381 116 14 388 4 498 -19z"/>
<path d="M3836 7335 c-51 -18 -63 -30 -101 -105 -177 -352 -320 -850 -377
-1320 -20 -161 -17 -603 5 -775 60 -468 188 -896 395 -1325 309 -642 438
-1361 357 -1998 -46 -366 -153 -748 -306 -1093 -38 -85 -69 -165 -69 -177 0
-63 67 -132 128 -132 74 0 109 32 164 150 267 572 406 1262 370 1838 -34 534
-161 1014 -406 1532 -188 396 -305 782 -361 1190 -23 164 -31 516 -16 691 36
419 166 903 344 1279 46 96 51 121 38 163 -23 70 -95 106 -165 82z"/>
</g>
</svg>
