<svg width="535" height="775" viewBox="0 0 535 775" fill="none" xmlns="http://www.w3.org/2000/svg">
<path d="M267.5 760.895C407.504 760.895 521 593.638 521 387.316C521 180.994 407.504 13.7368 267.5 13.7368C127.496 13.7368 14 180.994 14 387.316C14 593.638 127.496 760.895 267.5 760.895Z" fill="#A57939"/>
<path fill-rule="evenodd" clip-rule="evenodd" d="M271.676 760.895C271.476 760.895 271.409 760.615 271.609 760.548C382.696 722.736 465.777 570.289 465.777 387.996C465.777 205.596 382.602 53.0827 271.423 15.3779C270.529 15.0711 270.729 13.7368 271.676 13.7368C409.367 13.7368 521 180.993 521 387.316C521 593.638 409.367 760.895 271.676 760.895Z" fill="#6A462F"/>
<path fill-rule="evenodd" clip-rule="evenodd" d="M267.5 720.868C267.5 720.868 187.447 571.53 187.447 387.316C187.447 203.728 266.966 54.7772 267.5 53.7632C267.113 54.4836 227.474 128.879 227.474 220.539C227.474 312.64 267.5 387.316 267.5 387.316C267.5 387.316 307.526 461.978 307.526 554.092C307.526 646.206 267.5 720.868 267.5 720.868Z" fill="#6A462F"/>
<path d="M267.5 720.868L255.746 727.166C256.887 729.291 258.582 731.066 260.652 732.304C262.722 733.542 265.088 734.196 267.5 734.196C269.912 734.196 272.278 733.542 274.348 732.304C276.418 731.066 278.113 729.291 279.254 727.166L267.5 720.868ZM267.5 53.7632L279.268 60.0473C280.936 56.9263 281.296 53.2704 280.269 49.8837C279.242 46.4971 276.912 43.6572 273.791 41.9888C270.67 40.3204 267.014 39.9601 263.627 40.9872C260.241 42.0143 257.401 44.3447 255.732 47.4657L267.5 53.7632ZM174.105 387.316C174.105 481.271 194.505 566.127 214.799 627.367C222.948 652.045 232.294 676.312 242.804 700.081C246.575 708.567 250.557 716.957 254.745 725.245L255.465 726.632L255.652 727.006L255.719 727.112V727.153L267.5 720.868C275.336 716.661 279.259 714.562 279.268 714.571L279.228 714.504L279.081 714.224L278.467 713.023C277.907 711.956 277.093 710.346 276.026 708.193C272.956 701.931 270.007 695.61 267.18 689.234C257.03 666.267 248.005 642.819 240.135 618.975C220.416 559.482 200.789 477.562 200.789 387.316H174.105ZM255.732 47.4657C254.892 49.0668 174.105 200.366 174.105 387.316H200.789C200.789 207.064 279.028 60.5009 279.268 60.0607L255.732 47.4657ZM240.816 220.539C240.816 176.551 250.342 136.498 260.015 107.225C269.661 78.0058 279.321 59.9406 279.268 60.0473L255.732 47.4791C255.038 48.7599 214.132 125.53 214.132 220.526L240.816 220.539ZM267.5 387.316C275.336 383.109 279.259 381.009 279.268 381.018L279.254 381.005L279.201 380.885L277.747 378.03C276.719 375.948 275.238 372.826 273.437 368.784C268.46 357.497 264.025 345.978 260.149 334.268C250.435 304.955 240.816 264.729 240.816 220.539L214.132 220.526C214.132 268.424 224.538 311.599 234.838 342.66C238.987 355.199 243.733 367.532 249.061 379.617C251.001 383.981 253.048 388.296 255.199 392.559L255.599 393.306C255.634 393.395 255.67 393.462 255.706 393.507L255.732 393.573V393.6L267.5 387.316ZM267.5 387.316L255.732 393.6L255.746 393.613L255.812 393.747L257.253 396.589C258.281 398.67 259.762 401.792 261.563 405.835C265.165 413.933 270.008 425.741 274.851 440.351C284.565 469.663 294.198 509.89 294.198 554.092H320.882C320.882 506.181 310.475 463.019 300.175 431.959C296.027 419.419 291.28 407.086 285.952 395.001C283.891 390.387 281.711 385.827 279.415 381.325L279.308 381.112L279.281 381.045L279.268 381.018L267.5 387.316ZM294.198 554.092C294.198 598.281 284.565 638.508 274.838 667.82C270.966 679.531 266.535 691.049 261.563 702.336C259.743 706.418 257.821 710.453 255.799 714.438L255.746 714.558L267.5 720.868L279.254 727.166L279.268 727.126L279.308 727.059L279.428 726.859L279.815 726.112L281.189 723.377C282.35 721.002 283.991 717.573 285.939 713.183C291.272 701.099 296.022 688.765 300.175 676.226C310.475 645.139 320.882 601.99 320.882 554.092H294.198Z" fill="#6A462F"/>
<path d="M267.5 760.895C407.504 760.895 521 593.638 521 387.316C521 180.994 407.504 13.7368 267.5 13.7368C127.496 13.7368 14 180.994 14 387.316C14 593.638 127.496 760.895 267.5 760.895Z" stroke="black" stroke-width="26.6842"/>
<path d="M267.5 53.7632C267.5 53.7632 227.474 128.426 227.474 220.54C227.474 312.653 267.5 387.316 267.5 387.316C267.5 387.316 307.526 461.978 307.526 554.092C307.526 646.206 267.5 720.868 267.5 720.868" stroke="black" stroke-width="26.6842" stroke-linecap="round" stroke-linejoin="round"/>
</svg>
